<?xml version="1.0" encoding="UTF-8"?>
<svg id="Laag_2" data-name="Laag 2" xmlns="http://www.w3.org/2000/svg" viewBox="0 0 89.33 172.57">
  <defs>
    <style>
      .cls-1 {
        fill: #04221a;
        stroke-width: 0px;
      }
    </style>
  </defs>
  <g id="Laag_1-2" data-name="Laag 1">
    <g>
      <path class="cls-1" d="m48.29,48.71c-13.57-4.16-25.28-7.75-25.28-21.55,0-10.41,8.92-17.13,22.73-17.13,8.36-.06,16.55,2.44,23.45,7.15l1.45,1.02,5.38-8.46-1.32-.93C66.18,2.98,56.07-.1,45.74,0,25.55,0,12.49,10.66,12.49,27.15c0,21.29,16.87,26.46,31.76,31.01,13.45,4.11,25.07,7.67,25.07,21.24,0,11.64-9.59,19.17-24.43,19.17-10.08.3-20-2.56-28.37-8.18l-1.44-1.01-5.55,8.57,1.26.95c10.02,6.84,21.98,10.23,34.1,9.67,21.23,0,34.95-11.46,34.95-29.18,0-21.02-16.76-26.16-31.54-30.69"/>
      <path class="cls-1" d="m89.33,172.57h-10.18c.26-19.05-14.97-34.7-34.02-34.96s-34.7,14.97-34.96,34.02c0,.31,0,.62,0,.93H0c.02-24.67,20.03-44.65,44.69-44.64,24.65.02,44.62,19.99,44.64,44.64"/>
    </g>
  </g>
</svg>